<?xml version="1.0" encoding="utf-8"?>
<!-- Generator: Adobe Illustrator 24.1.1, SVG Export Plug-In . SVG Version: 6.00 Build 0)  -->
<svg version="1.1" id="Layer_1" xmlns="http://www.w3.org/2000/svg" xmlns:xlink="http://www.w3.org/1999/xlink" x="0px" y="0px"
	 viewBox="0 0 24 24" style="enable-background:new 0 0 24 24;" xml:space="preserve">
<style type="text/css">
	.st0{fill:#ABADB0;}
</style>
<path class="st0" d="M1.8,3h20.5c1,0,1.8,0.8,1.8,1.8v14c0,1-0.8,1.8-1.8,1.8H1.8c-1,0-1.8-0.8-1.8-1.8v-14C0,3.8,0.8,3,1.8,3z
	 M1.5,7.4v11.3c0,0.1,0.1,0.3,0.3,0.3h20.5c0.1,0,0.3-0.1,0.3-0.3V7.4L13,13.8c-0.6,0.4-1.4,0.4-2,0L1.5,7.4z M1.5,4.8v0.9l10.4,7
	c0.1,0.1,0.2,0.1,0.3,0l10.4-7V4.8c0-0.1-0.1-0.3-0.3-0.3H1.8C1.6,4.5,1.5,4.6,1.5,4.8z"/>
</svg>
